<?xml version="1.0" encoding="utf-8"?>
<!-- Generator: Adobe Illustrator 19.2.0, SVG Export Plug-In . SVG Version: 6.00 Build 0)  -->
<svg version="1.1" id="Layer_1" xmlns="http://www.w3.org/2000/svg" xmlns:xlink="http://www.w3.org/1999/xlink" x="0px" y="0px"
	 viewBox="0 0 72 72" style="enable-background:new 0 0 72 72;" xml:space="preserve">
<style type="text/css">
	.st0{fill:#FBFBE4;}
</style>
<path class="st0" d="M62.9,19.1H9.1C7.4,19.1,6,17.7,6,16v-2.5c0-1.7,1.4-3.1,3.1-3.1h53.8c1.7,0,3.1,1.4,3.1,3.1V16
	C66,17.7,64.6,19.1,62.9,19.1z"/>
<path class="st0" d="M62.9,40.3H9.1c-1.7,0-3.1-1.4-3.1-3.1v-2.5c0-1.7,1.4-3.1,3.1-3.1h53.8c1.7,0,3.1,1.4,3.1,3.1v2.5
	C66,38.9,64.6,40.3,62.9,40.3z"/>
<path class="st0" d="M63.2,61.6H9.4c-1.7,0-3.1-1.4-3.1-3.1V56c0-1.7,1.4-3.1,3.1-3.1h53.8c1.7,0,3.1,1.4,3.1,3.1v2.5
	C66.3,60.2,64.9,61.6,63.2,61.6z"/>
</svg>
