<svg id="Layer_1" data-name="Layer 1" xmlns="http://www.w3.org/2000/svg" xmlns:xlink="http://www.w3.org/1999/xlink" viewBox="0 0 288 40.79"><defs><style>.cls-1{fill:url(#linear-gradient);}</style><linearGradient id="linear-gradient" y1="20.4" x2="288" y2="20.4" gradientUnits="userSpaceOnUse"><stop offset="0" stop-color="#d83f88"/><stop offset="1" stop-color="#7e66a3"/></linearGradient></defs><title>waveform</title><path class="cls-1" d="M288,20.42c-5,.22-9.9.49-14.85,0.67s-9.9.41-14.85,0.55l-14.85.47-14.85.38-14.85.36-14.85.27L184,23.38l-7.45.05-7.43,0h-2l-0.86-1.85-1.84-4h5.79L165,29.69l-2.92,6.69L159,29.69c-1.55-3.31-3-6.65-4.56-10l-4.54-10h6.23l-5.36,12c-1.79,4-3.55,8-5.38,12l-3.22,7-3.13-7-8.93-20h6.21L129,29.7l-3.1,6.8-3-6.8L117.7,17.64h5.8l-1.84,4-0.87,1.87-2,0-14.85-.16L89.1,23l-14.85-.27L59.4,22.42,44.55,22,29.7,21.55c-4.95-.14-9.9-0.37-14.85-0.55S4.95,20.55,0,20.33c4.95-.22,9.9-0.49,14.85-0.67s9.9-.41,14.85-0.55l14.85-.48,14.85-.39,14.85-.36,14.85-.27,14.85-.26,14.85-.16L115.94,19l1.76-4,2.82-6.45,3,6.45L129,27H123l7.13-16L133.17,4l3.14,6.91,9.07,20H139c1.77-4,3.61-8,5.42-12l5.44-12L153,0l3.09,6.93,4.46,10c1.48,3.34,3,6.67,4.44,10H159L164.51,15l3-6.43L170.29,15l1.76,4-2.83-1.84,29.68,0.51L213.75,18l14.85,0.36,14.85,0.38L258.3,19.2c5,0.14,9.9.37,14.85,0.55S283,20.2,288,20.42Z"/></svg>